<svg xmlns="http://www.w3.org/2000/svg" xmlns:xlink="http://www.w3.org/1999/xlink" width="100pt" height="100pt" version="1.1" viewBox="0 0 100 100"><g id="surface1"><path d="M 77.082031 93.75 L 22.917969 93.75 C 19.464844 93.75 16.667969 90.953125 16.667969 87.5 L 16.667969 12.5 C 16.667969 9.046875 19.464844 6.25 22.917969 6.25 L 62.5 6.25 L 83.332031 27.082031 L 83.332031 87.5 C 83.332031 90.953125 80.535156 93.75 77.082031 93.75 Z M 77.082031 93.75" style="stroke:none;fill-rule:nonzero;fill:#43a047;fill-opacity:1"/><path d="M 83.332031 27.082031 L 62.5 27.082031 L 62.5 6.25 Z M 83.332031 27.082031" style="stroke:none;fill-rule:nonzero;fill:#c8e6c9;fill-opacity:1"/><path d="M 62.5 27.082031 L 83.332031 47.917969 L 83.332031 27.082031 Z M 62.5 27.082031" style="stroke:none;fill-rule:nonzero;fill:#2e7d32;fill-opacity:1"/><path d="M 64.582031 47.917969 L 31.25 47.917969 L 31.25 77.082031 L 68.75 77.082031 L 68.75 47.917969 Z M 35.417969 52.082031 L 43.75 52.082031 L 43.75 56.25 L 35.417969 56.25 Z M 35.417969 60.417969 L 43.75 60.417969 L 43.75 64.582031 L 35.417969 64.582031 Z M 35.417969 68.75 L 43.75 68.75 L 43.75 72.917969 L 35.417969 72.917969 Z M 64.582031 72.917969 L 47.917969 72.917969 L 47.917969 68.75 L 64.582031 68.75 Z M 64.582031 64.582031 L 47.917969 64.582031 L 47.917969 60.417969 L 64.582031 60.417969 Z M 64.582031 56.25 L 47.917969 56.25 L 47.917969 52.082031 L 64.582031 52.082031 Z M 64.582031 56.25" style="stroke:none;fill-rule:nonzero;fill:#e8f5e9;fill-opacity:1"/></g></svg>